<svg xmlns="http://www.w3.org/2000/svg" width="39" height="45" viewBox="0 0 39 45">
  <g fill="none" fill-rule="evenodd">
    <path fill="#FFF" fill-rule="nonzero" d="M15.1937861,39.9999992 L4.95,39.9999992 C2.21595,39.9999992 1.20792265e-12,37.7616659 1.20792265e-12,34.9999993 L1.20792265e-12,4.9999999 C1.20792265e-12,2.23833329 2.21595,0 4.95,0 L33,0 L33,3.33333327 L5.76675,3.33333327 C3.498,3.33333327 3.498,6.66666654 5.76675,6.66666654 L33,6.66666654 L33,21.0517012 C31.9578108,20.6176214 30.8517441,20.3081855 29.7,20.1417773 L29.7,9.9999998 L6.6,9.9999998 L6.6,36.6666659 L14.1111256,36.6666659 C14.3344019,37.8361384 14.7017553,38.9537803 15.1937901,40 Z"/>
    <path fill="#FFF" fill-rule="nonzero" d="M28,23 C21.92525,23 17,27.92525 17,34 C17,40.07475 21.92525,45 28,45 C34.07475,45 39,40.07475 39,34 C39,27.92525 34.07475,23 28,23 Z M34,34.4166667 L29.4166667,34.4166667 L29.4166667,39 L27.5833333,39 L27.5833333,34.4166667 L23,34.4166667 L23,32.5833333 L27.5833333,32.5833333 L27.5833333,28 L29.4166667,28 L29.4166667,32.5833333 L34,32.5833333 L34,34.4166667 Z"/>
  </g>
</svg>
