<svg xmlns="http://www.w3.org/2000/svg" width="45" height="45" viewBox="0 0 45 45">
  <defs>
    <linearGradient id="addclient-a" x1="50%" x2="50%" y1="0%" y2="100%">
      <stop offset="0%" stop-color="#FFCEAB"/>
      <stop offset="100%" stop-color="#FF7A72"/>
    </linearGradient>
  </defs>
  <path fill="url(#addclient-a)" d="M36.5625,28.125 C31.906875,28.125 28.125,31.903125 28.125,36.5625 C28.125,41.221875 31.906875,45 36.5625,45 C41.218125,45 45,41.221875 45,36.5625 C45,31.903125 41.218125,28.125 36.5625,28.125 Z M41.25,37.5 L37.5,37.5 L37.5,41.25 L35.625,41.25 L35.625,37.5 L31.875,37.5 L31.875,35.625 L35.625,35.625 L35.625,31.875 L37.5,31.875 L37.5,35.625 L41.25,35.625 L41.25,37.5 Z M27.7875,45 L0.009375,45 L7.81492926e-16,42.673125 C7.81492926e-16,37.948125 0.373125,35.22 5.95875,33.93 C12.268125,32.473125 18.49875,31.168125 15.5025,25.64625 C6.628125,9.279375 12.97125,0 22.5,0 C35.158125,0 36.57375,14.240625 29.325,25.648125 C26.9025,29.45625 24.375,32.454375 24.375,36.5625 C24.375,39.838125 25.68,42.808125 27.7875,45 Z"/>
</svg>
