<svg xmlns="http://www.w3.org/2000/svg" width="47" height="40" viewBox="0 0 47 40">
  <g fill="#FFF">
    <path d="M25.0381402,34.4503188 C24.5622017,34.6361027 24.0987802,34.8319432 23.6489811,35.0382222 C22.141434,35.728 20.419283,35.728 18.9188302,35.0382222 C13.8250943,32.7022222 6.98260377,31.7048889 0,31.4915556 L0,0 C8.13011321,0.248888889 16.0722264,1.55911111 21.2830189,4.81244444 C26.4938113,1.55911111 34.4359245,0.248888889 42.5660377,0 L42.5660377,18.553734 C41.4773594,17.9224788 40.2841753,17.4521713 39.0188679,17.1752707 L39.0188679,3.74577778 C29.849434,4.43911111 25.6336226,6.36088889 23.0566038,7.89155556 L23.0566038,31.3066667 C23.3524681,31.2002926 23.6837101,31.0851543 24.0489926,30.9637602 C24.2092386,32.1912256 24.5479416,33.3624201 25.0381402,34.4503188 Z M3.54716981,28.1084444 C11.1452075,28.6293333 16.804717,30.3342222 19.509434,31.3048889 L19.509434,7.89511111 C16.8969434,6.34666667 12.6935472,4.43733333 3.54716981,3.74577778 L3.54716981,28.1084444 Z"/>
    <path d="M36.3584906,19.5555556 C30.9714481,19.5555556 26.6037736,23.9335556 26.6037736,29.3333333 C26.6037736,34.7331111 30.9714481,39.1111111 36.3584906,39.1111111 C41.745533,39.1111111 46.1132075,34.7331111 46.1132075,29.3333333 C46.1132075,23.9335556 41.745533,19.5555556 36.3584906,19.5555556 Z M41.6792453,29.7037037 L37.6147799,29.7037037 L37.6147799,33.7777778 L35.9889937,33.7777778 L35.9889937,29.7037037 L31.9245283,29.7037037 L31.9245283,28.0740741 L35.9889937,28.0740741 L35.9889937,24 L37.6147799,24 L37.6147799,28.0740741 L41.6792453,28.0740741 L41.6792453,29.7037037 Z"/>
  </g>
</svg>
