<svg xmlns="http://www.w3.org/2000/svg" width="36" height="40" viewBox="0 0 36 40">
  <g fill="#FFF" fill-rule="evenodd">
    <path d="M32.6511628,8.60760812 L32.6511628,30.2617812 L32.6511628,22.5 C31.4234511,21.3558815 31.8524797,21.5825605 31.4234511,21.3558815 C30.5079929,20.8721954 30.2694609,20.8357764 30.2694609,20.5987109 L30.2694609,10.5681989 C30.2694609,9.79892016 29.553383,9.22247885 28.7867749,9.37458572 L13.9035361,12.3290488 C13.3217374,12.4445672 12.9034599,12.9473713 12.9034599,13.5311763 L12.9034599,33.84101 C12.8910613,35.9990406 11.0839061,38.2801834 8.29305026,39.3817501 C4.87898906,40.7293111 1.2869026,39.8007919 0.269983045,37.3079421 C-0.746702577,34.8150923 1.19660333,31.701849 4.61089846,30.354288 C6.44542415,29.6303421 8.33094788,29.5636084 9.84100441,30.043631 C10.1778722,30.1506351 10.521758,29.8998083 10.521758,29.5516424 L10.521758,13.000298 L10.521758,5.64992343 C10.521758,4.64477547 11.2420468,3.77907799 12.2435266,3.58025751 L30.0652348,0.0426797663 C31.4021788,-0.222644317 32.6511628,0.782733759 32.6511628,2.12431174 L32.6511628,8.60760812 Z"/>
    <path fill-rule="nonzero" d="M26.7906977,20.8333333 C21.7048605,20.8333333 17.5813953,24.9377083 17.5813953,30 C17.5813953,35.0622917 21.7048605,39.1666667 26.7906977,39.1666667 C31.8765349,39.1666667 36,35.0622917 36,30 C36,24.9377083 31.8765349,20.8333333 26.7906977,20.8333333 Z M31.8139535,30.3472222 L27.9767442,30.3472222 L27.9767442,34.1666667 L26.4418605,34.1666667 L26.4418605,30.3472222 L22.6046512,30.3472222 L22.6046512,28.8194444 L26.4418605,28.8194444 L26.4418605,25 L27.9767442,25 L27.9767442,28.8194444 L31.8139535,28.8194444 L31.8139535,30.3472222 Z"/>
  </g>
</svg>
