<svg xmlns="http://www.w3.org/2000/svg" width="45" height="40" viewBox="0 0 45 40">
  <g fill="#FFF">
    <path d="M37.2527336,34.4186047 L35.2136366,34.4186047 L37.2527336,34.4186047 Z M25.1774559,37.2093023 L3.73034936e-13,37.2093023 L3.73034936e-13,0 L41.0671283,0 L41.2462394,19.4742481 C40.1489574,18.8036469 38.9364491,18.2996748 37.6448677,17.9980664 L37.6448677,16.9133192 L34.222607,16.9133192 L34.222607,17.6886566 C31.5798259,17.8145923 29.1568998,18.7695023 27.2142453,20.2959831 L10.2667821,20.2959831 L10.2667821,33.8266385 L23.2933171,33.8266385 C23.7373875,35.058557 24.3778532,36.1983874 25.1774559,37.2093023 Z M6.84452139,33.8266385 L6.84452139,30.4439746 L3.4222607,30.4439746 L3.4222607,33.8266385 L6.84452139,33.8266385 Z M6.84452139,27.0613108 L6.84452139,23.6786469 L3.4222607,23.6786469 L3.4222607,27.0613108 L6.84452139,27.0613108 Z M6.84452139,20.2959831 L6.84452139,16.9133192 L3.4222607,16.9133192 L3.4222607,20.2959831 L6.84452139,20.2959831 Z M6.84452139,13.5306554 L6.84452139,10.1479915 L3.4222607,10.1479915 L3.4222607,13.5306554 L6.84452139,13.5306554 Z M6.84452139,6.7653277 L6.84452139,3.38266385 L3.4222607,3.38266385 L3.4222607,6.7653277 L6.84452139,6.7653277 Z M30.8003463,16.9133192 L30.8003463,3.38266385 L10.2667821,3.38266385 L10.2667821,16.9133192 L30.8003463,16.9133192 Z M37.6448677,13.5306554 L37.6448677,10.1479915 L34.222607,10.1479915 L34.222607,13.5306554 L37.6448677,13.5306554 Z M37.6448677,6.7653277 L37.6448677,3.38266385 L34.222607,3.38266385 L34.222607,6.7653277 L37.6448677,6.7653277 Z"/>
    <path d="M34.6875,19.5348837 C28.9924219,19.5348837 24.375,24.1165116 24.375,29.7674419 C24.375,35.4183721 28.9924219,40 34.6875,40 C40.3825781,40 45,35.4183721 45,29.7674419 C45,24.1165116 40.3825781,19.5348837 34.6875,19.5348837 Z M40.3125,30.1550388 L36.015625,30.1550388 L36.015625,34.4186047 L34.296875,34.4186047 L34.296875,30.1550388 L30,30.1550388 L30,28.4496124 L34.296875,28.4496124 L34.296875,24.1860465 L36.015625,24.1860465 L36.015625,28.4496124 L40.3125,28.4496124 L40.3125,30.1550388 Z"/>
  </g>
</svg>
