<svg id="Layer_1" data-name="Layer 1" xmlns="http://www.w3.org/2000/svg" viewBox="0 0 213.13 36.47"><defs><style>.cls-1{isolation:isolate;}.cls-2{fill:#3ad29f;}</style></defs><title>bibliotecaLogo</title><g class="cls-1"><g class="cls-1"><path d="M1.05,37V2.88H13a22.63,22.63,0,0,1,5.32.56,11.26,11.26,0,0,1,4,1.72,7.61,7.61,0,0,1,2.49,2.92,9.37,9.37,0,0,1,.85,4.15,8.36,8.36,0,0,1-.29,2.25,7.25,7.25,0,0,1-2.4,3.71,7.84,7.84,0,0,1-2.18,1.26,7.41,7.41,0,0,1,2.56,1.13,7,7,0,0,1,2.77,4A9.42,9.42,0,0,1,26.41,27q0,5-3.2,7.5C21.07,36.16,18,37,14.1,37Zm7-19.83h5.2a6.41,6.41,0,0,0,4-1.13,3.84,3.84,0,0,0,1.31-3.11,3.91,3.91,0,0,0-1.35-3.34,7,7,0,0,0-4.25-1H8.08Zm0,5v9.21h6A7.15,7.15,0,0,0,16.45,31a4.61,4.61,0,0,0,1.64-.94,3.68,3.68,0,0,0,1-1.4,4.84,4.84,0,0,0,.32-1.77,6.35,6.35,0,0,0-.29-2,3.64,3.64,0,0,0-.88-1.5,3.71,3.71,0,0,0-1.55-1,7.12,7.12,0,0,0-2.3-.33Z" transform="translate(-1.05 -1)"/><path d="M31.19,5.08a3.34,3.34,0,0,1,1-2.51,3.8,3.8,0,0,1,2.77-1,4.54,4.54,0,0,1,1.57.25,3.61,3.61,0,0,1,1.2.73,3.18,3.18,0,0,1,.76,1.11,3.6,3.6,0,0,1,.27,1.4,3.67,3.67,0,0,1-.27,1.42,3.18,3.18,0,0,1-.76,1.11,3.61,3.61,0,0,1-1.2.73A4.54,4.54,0,0,1,35,8.59a4.62,4.62,0,0,1-1.57-.25,3.67,3.67,0,0,1-1.19-.73,3.18,3.18,0,0,1-.76-1.11A3.67,3.67,0,0,1,31.19,5.08ZM38.38,37H31.59V11.64h6.79Z" transform="translate(-1.05 -1)"/><path d="M66.81,24.55a20.8,20.8,0,0,1-.61,5.23,11.93,11.93,0,0,1-1.84,4.08,8.48,8.48,0,0,1-3.08,2.66,9.4,9.4,0,0,1-4.33.95,8.24,8.24,0,0,1-3.81-.83,8.51,8.51,0,0,1-2.78-2.34L50.05,37H44V1h6.77V13.91a7.83,7.83,0,0,1,2.64-2,8.12,8.12,0,0,1,3.53-.72,9.42,9.42,0,0,1,4.35,1,8.75,8.75,0,0,1,3.1,2.67,11.84,11.84,0,0,1,1.85,4.08,20.62,20.62,0,0,1,.61,5.18ZM60,24.06a18.54,18.54,0,0,0-.21-2.85,7.38,7.38,0,0,0-.76-2.35,4.3,4.3,0,0,0-1.49-1.59,4.45,4.45,0,0,0-2.39-.59,5.1,5.1,0,0,0-2.79.69,4.48,4.48,0,0,0-1.67,2v10a4.53,4.53,0,0,0,1.67,2,5.09,5.09,0,0,0,2.83.71,4.53,4.53,0,0,0,2.36-.56,4.24,4.24,0,0,0,1.48-1.55,7.12,7.12,0,0,0,.76-2.36,19.76,19.76,0,0,0,.21-3Z" transform="translate(-1.05 -1)"/><path d="M78.13,37H71.34V1h6.79Z" transform="translate(-1.05 -1)"/><path d="M83.66,5.08a3.34,3.34,0,0,1,1-2.51,3.82,3.82,0,0,1,2.78-1A4.58,4.58,0,0,1,89,1.84a3.61,3.61,0,0,1,1.2.73A3.32,3.32,0,0,1,91,3.68a3.6,3.6,0,0,1,.27,1.4A3.67,3.67,0,0,1,91,6.5a3.32,3.32,0,0,1-.76,1.11,3.61,3.61,0,0,1-1.2.73,5.05,5.05,0,0,1-3.14,0,3.46,3.46,0,0,1-1.19-.73,3.21,3.21,0,0,1-.77-1.11A3.67,3.67,0,0,1,83.66,5.08ZM90.86,37h-6.8V11.64h6.8Z" transform="translate(-1.05 -1)"/><path d="M95.38,24.09a16.05,16.05,0,0,1,.8-5.14,11.75,11.75,0,0,1,2.32-4.09,10.62,10.62,0,0,1,3.76-2.7,12.47,12.47,0,0,1,5.1-1,12.62,12.62,0,0,1,5.13,1,10.74,10.74,0,0,1,3.79,2.7A11.77,11.77,0,0,1,118.61,19a16.05,16.05,0,0,1,.8,5.14v.49a16,16,0,0,1-.8,5.14,11.72,11.72,0,0,1-2.33,4.08,10.81,10.81,0,0,1-3.76,2.7,14,14,0,0,1-10.23,0,10.7,10.7,0,0,1-3.78-2.7,11.72,11.72,0,0,1-2.33-4.08,16,16,0,0,1-.8-5.14Zm6.78.49a14.06,14.06,0,0,0,.28,2.9,7,7,0,0,0,.9,2.36A4.62,4.62,0,0,0,105,31.42a4.75,4.75,0,0,0,2.45.59,4.69,4.69,0,0,0,2.4-.59,4.83,4.83,0,0,0,1.63-1.58,7,7,0,0,0,.91-2.36,14.06,14.06,0,0,0,.28-2.9v-.49a13.78,13.78,0,0,0-.28-2.85,7.36,7.36,0,0,0-.91-2.37,4.5,4.5,0,0,0-4.08-2.21,4.43,4.43,0,0,0-4,2.21,7.35,7.35,0,0,0-.9,2.37,13.78,13.78,0,0,0-.28,2.85Z" transform="translate(-1.05 -1)"/><path d="M131.69,5.41v6.23H136v5h-4.33V29.27a4.42,4.42,0,0,0,.16,1.31,1.82,1.82,0,0,0,.49.81,1.93,1.93,0,0,0,.81.4,5.43,5.43,0,0,0,1.14.1,9.43,9.43,0,0,0,1.11-.05c.34,0,.63-.07.88-.11v5.13a14.26,14.26,0,0,1-1.84.43,12.78,12.78,0,0,1-2.26.18,10.31,10.31,0,0,1-3-.41,5.51,5.51,0,0,1-3.75-3.62,10.31,10.31,0,0,1-.52-3.45V16.61h-3.7v-5h3.7V5.41Z" transform="translate(-1.05 -1)"/></g></g><g class="cls-1"><g class="cls-1"><path class="cls-2" d="M161.73,32.08a13.73,13.73,0,0,1-4.31,3.21,11.57,11.57,0,0,1-4.62,1.1,11.23,11.23,0,0,1-4.55-.84,13.23,13.23,0,0,1-4.09-2.65l-.66-.62a15.86,15.86,0,0,1-3.3-4.21,11.94,11.94,0,0,1-1.41-4.55,10.76,10.76,0,0,1,.56-4.58,13.09,13.09,0,0,1,6.59-7.17,9.73,9.73,0,0,1,4.24-.83,10.66,10.66,0,0,1,4.32,1.12,16.86,16.86,0,0,1,4.23,3l2.11,2-11,11.81a7,7,0,0,0,2.1,1.05,5.87,5.87,0,0,0,2.14.23,5.74,5.74,0,0,0,2.07-.58A6.76,6.76,0,0,0,158,28a8.56,8.56,0,0,0,1.83-3,7,7,0,0,0,.27-3.43l5,.1a10.21,10.21,0,0,1,.2,2.27,10.6,10.6,0,0,1-.4,2.58,13,13,0,0,1-1.16,2.75A14.61,14.61,0,0,1,161.73,32.08ZM146,18.45a4.5,4.5,0,0,0-1,1.67,4.19,4.19,0,0,0-.18,1.79,5.44,5.44,0,0,0,.54,1.83,9.38,9.38,0,0,0,1.2,1.85l6.42-6.89-.39-.37A7.23,7.23,0,0,0,151,17.27a4.2,4.2,0,0,0-1.66-.42,3.76,3.76,0,0,0-1.68.35A5.38,5.38,0,0,0,146,18.45Z" transform="translate(-1.05 -1)"/></g></g><g class="cls-1"><g class="cls-1"><path d="M178.15,32a5.2,5.2,0,0,0,1.71-.27A4.18,4.18,0,0,0,181.2,31a3.56,3.56,0,0,0,.87-1.19,3.72,3.72,0,0,0,.34-1.56h6.36a8.68,8.68,0,0,1-.85,3.72,9.14,9.14,0,0,1-2.22,2.93,10.16,10.16,0,0,1-3.32,1.91,13.33,13.33,0,0,1-9.27-.32,10.15,10.15,0,0,1-3.66-2.72,11.54,11.54,0,0,1-2.18-4.05,17,17,0,0,1-.72-5V24a17.06,17.06,0,0,1,.72-5,11.59,11.59,0,0,1,2.18-4.08,10.11,10.11,0,0,1,3.65-2.73,12.18,12.18,0,0,1,5.12-1,12.68,12.68,0,0,1,4.28.69,9.4,9.4,0,0,1,3.31,2A9.13,9.13,0,0,1,188,17a11,11,0,0,1,.8,4.12h-6.36a5.47,5.47,0,0,0-.31-1.73,4.44,4.44,0,0,0-.83-1.4,3.84,3.84,0,0,0-1.34-.95,4.39,4.39,0,0,0-1.83-.35,4.31,4.31,0,0,0-2.41.61,4.11,4.11,0,0,0-1.47,1.62,7.25,7.25,0,0,0-.71,2.36,19.13,19.13,0,0,0-.19,2.77v.65a19.31,19.31,0,0,0,.19,2.79,7.06,7.06,0,0,0,.71,2.34,4.08,4.08,0,0,0,1.47,1.61A4.48,4.48,0,0,0,178.15,32Z" transform="translate(-1.05 -1)"/><path d="M207.33,37a7.61,7.61,0,0,1-.68-2.27,8.93,8.93,0,0,1-2.59,1.94,8.32,8.32,0,0,1-3.81.8,10.21,10.21,0,0,1-3.41-.56,8.57,8.57,0,0,1-2.74-1.57,7.28,7.28,0,0,1-1.82-2.41,7.05,7.05,0,0,1-.66-3.05,8.15,8.15,0,0,1,.74-3.54,6.91,6.91,0,0,1,2.22-2.63,10.7,10.7,0,0,1,3.67-1.64,20.85,20.85,0,0,1,5.09-.56h3V20.05a4.15,4.15,0,0,0-.91-2.81,3.55,3.55,0,0,0-2.84-1,4,4,0,0,0-2.69.82,2.79,2.79,0,0,0-1,2.25h-6.77a6.66,6.66,0,0,1,.76-3.12,7.92,7.92,0,0,1,2.17-2.58,10.89,10.89,0,0,1,3.4-1.74,15.36,15.36,0,0,1,8.53-.09,9.27,9.27,0,0,1,3.23,1.68,7.56,7.56,0,0,1,2.12,2.79,9.33,9.33,0,0,1,.76,3.9V30.84c0,.71,0,1.36.07,1.93s.11,1.09.19,1.55a7.74,7.74,0,0,0,.31,1.24,6.91,6.91,0,0,0,.44,1V37Zm-5.6-4.71a5.84,5.84,0,0,0,1.6-.21,6.17,6.17,0,0,0,1.33-.55,4.78,4.78,0,0,0,1-.79,4.37,4.37,0,0,0,.69-.91V25.47h-2.79a8.35,8.35,0,0,0-2.32.29,4.57,4.57,0,0,0-1.62.82,3.41,3.41,0,0,0-.94,1.24,4,4,0,0,0-.3,1.56,2.73,2.73,0,0,0,.89,2.09A3.45,3.45,0,0,0,201.73,32.29Z" transform="translate(-1.05 -1)"/></g></g></svg>