<svg xmlns="http://www.w3.org/2000/svg" width="67" height="50" viewBox="0 0 67 50">
  <defs>
    <linearGradient id="cart-a" x1="100%" x2="0%" y1="0%" y2="100%">
      <stop offset="0%" stop-color="#9B3CB7"/>
      <stop offset="100%" stop-color="#FF396F"/>
    </linearGradient>
  </defs>
  <path fill="url(#cart-a)" d="M52.7777778,75.8333333 C52.7777778,78.1361111 50.9111111,80 48.6111111,80 C46.3111111,80 44.4444444,78.1361111 44.4444444,75.8333333 C44.4444444,73.5333333 46.3111111,71.6666667 48.6111111,71.6666667 C50.9111111,71.6666667 52.7777778,73.5333333 52.7777778,75.8333333 Z M62.5,71.6666667 C60.2,71.6666667 58.3333333,73.5305556 58.3333333,75.8333333 C58.3333333,78.1361111 60.2,80 62.5,80 C64.8,80 66.6666667,78.1361111 66.6666667,75.8333333 C66.6666667,73.5333333 64.8,71.6666667 62.5,71.6666667 Z M66.2111111,57.7777778 L71.7027778,38.3333333 L25,38.3333333 L33.1611111,57.7777778 L66.2111111,57.7777778 Z M80.0138889,30 L70.4805556,63.3333333 L35.4888889,63.3333333 L37.8194444,68.8888889 L74.5944444,68.8888889 L84.2444444,35.5555556 L89.6027778,35.5555556 L91.6666667,30 L80.0138889,30 Z" transform="matrix(-1 0 0 1 91.667 -30)"/>
</svg>
