<svg xmlns="http://www.w3.org/2000/svg" width="60" height="45" viewBox="0 0 60 45">
  <defs>
    <linearGradient id="catalog-a" x1="100%" x2="0%" y1="0%" y2="100%">
      <stop offset="0%" stop-color="#17EAD9"/>
      <stop offset="100%" stop-color="#6078EA"/>
    </linearGradient>
  </defs>
  <path fill="url(#catalog-a)" d="M56.925,5 L56.925,39.7075 L54.45,40 L54.45,0 C44.809875,0.2975 35.875125,1.905 29.69505,5.79 C23.51745,1.905 14.5926,0.2975 4.95,0 L4.95,40 L2.475,39.7075 L2.475,5 L0,5 L0,42.5 L22.416075,42.5 C26.0766,42.5 26.47755,45 29.69505,45 C32.92245,45 33.311025,42.5 36.9765,42.5 L59.4,42.5 L59.4,5 L56.925,5 Z M27.225,39.1125 C22.40865,37.1825 16.985925,35.94 9.9,35.4025 L9.9,5.275 C15.7212,5.7675 22.2651,6.9625 27.225,10.08 L27.225,39.1125 Z M49.5,35.4025 C42.414075,35.94 36.99135,37.1825 32.175,39.1125 L32.175,10.08 C37.1349,6.9625 43.6788,5.7675 49.5,5.275 L49.5,35.4025 Z"/>
</svg>
