<svg xmlns="http://www.w3.org/2000/svg" width="25" height="30" viewBox="0 0 25 30">
  <path fill="#F2475C" fill-rule="evenodd" d="M837.25,36 L819.75,36 C818.37,36 817.25,34.88 817.25,33.5 L817.25,12.25 L816,12.25 L816,9.75 L823.5,9.75 L823.5,7.875 C823.5,6.84125 824.34125,6 825.375,6 L831.625,6 C832.65625,6 833.5,6.83875 833.5,7.875 L833.5,9.75 L841,9.75 L841,12.25 L839.75,12.25 L839.75,33.5 C839.75,34.88 838.63,36 837.25,36 Z M837.25,12.25 L819.75,12.25 L819.75,32.875 C819.75,33.22 820.03,33.5 820.375,33.5 L836.625,33.5 C836.97,33.5 837.25,33.22 837.25,32.875 L837.25,12.25 Z M826,17.25 C826,16.56 825.44,16 824.75,16 C824.06,16 823.5,16.56 823.5,17.25 L823.5,28.5 C823.5,29.19 824.06,29.75 824.75,29.75 C825.44,29.75 826,29.19 826,28.5 L826,17.25 Z M833.5,17.25 C833.5,16.56 832.94,16 832.25,16 C831.56,16 831,16.56 831,17.25 L831,28.5 C831,29.19 831.56,29.75 832.25,29.75 C832.94,29.75 833.5,29.19 833.5,28.5 L833.5,17.25 Z M831,8.5 L826,8.5 L826,9.75 L831,9.75 L831,8.5 Z" transform="translate(-816 -6)"/>
</svg>
