<svg xmlns="http://www.w3.org/2000/svg" width="42" height="40" viewBox="0 0 42 40">
  <g fill="none" fill-rule="evenodd">
    <path fill="#FFF" d="M25.8337324,4.08163265 C25.5298813,4.69393288 25.3584906,5.38757272 25.3584906,6.12244898 C25.3584906,6.85732523 25.5298813,7.55096508 25.8337324,8.16326531 L0,8.16326531 L0,4.08163265 L25.8337324,4.08163265 Z M33.6002299,4.08163265 L42,4.08163265 L42,8.16326485 L33.6002299,8.16326485 C33.904081,7.55096508 34.0754717,6.85732523 34.0754717,6.12244898 C34.0754717,5.38757272 33.904081,4.69393288 33.6002299,4.08163265 Z"/>
    <ellipse cx="29.235" cy="6.122" stroke="#FFF" stroke-width="3" rx="4.529" ry="4.49"/>
    <path fill="#FFF" d="M7.60731704,17.9591837 C7.30346611,18.5714839 7.13207547,19.2651238 7.13207547,20 C7.13207547,20.7348762 7.30346611,21.4285161 7.60731704,22.0408163 L0,22.0408163 L0,17.9591837 L7.60731704,17.9591837 Z M15.373815,17.9591837 L42,17.9591837 L42,22.0408163 L15.373815,22.0408163 C15.677666,21.4285161 15.8490566,20.7348762 15.8490566,20 C15.8490566,19.2651238 15.677666,18.5714839 15.373815,17.9591837 Z"/>
    <ellipse cx="11.118" cy="20" stroke="#FFF" stroke-width="3" rx="4.529" ry="4.49"/>
    <path fill="#FFF" d="M19.4941095,31.8367347 C19.1902586,32.4490349 19.0188679,33.1426748 19.0188679,33.877551 C19.0188679,34.6124273 19.1902586,35.3060671 19.4941095,35.9183673 L0,35.9183673 L0,31.8367347 L19.4941095,31.8367347 Z M27.2606075,31.8367347 L42,31.8367347 L42,35.9183673 L27.2606075,35.9183673 C27.5644584,35.3060671 27.7358491,34.6124273 27.7358491,33.877551 C27.7358491,33.1426748 27.5644584,32.4490349 27.2606075,31.8367347 Z"/>
    <ellipse cx="23.471" cy="33.878" stroke="#FFF" stroke-width="3" rx="4.529" ry="4.49"/>
  </g>
</svg>
