<svg xmlns="http://www.w3.org/2000/svg" width="34" height="34" viewBox="0 0 34 34">
  <g fill="none" fill-rule="evenodd" transform="translate(0 2)">
    <path fill="#FFF" d="M20.8083255,1.91489326 C20.5635822,2.39366003 20.4255319,2.93602748 20.4255319,3.5106383 C20.4255319,4.08524912 20.5635822,4.62761656 20.8083255,5.10638334 L0,5.10638334 L0,1.91489326 L20.8083255,1.91489326 Z M27.064015,1.91489326 L33.8297872,1.91489326 L33.8297872,5.10638298 L27.064015,5.10638298 C27.3087582,4.62761656 27.4468085,4.08524912 27.4468085,3.5106383 C27.4468085,2.93602748 27.3087582,2.39366003 27.064015,1.91489326 Z"/>
    <circle cx="23.936" cy="3.511" r="3.511" stroke="#FFF" stroke-width="3"/>
    <path fill="#FFF" d="M6.12747421,13.4042553 C5.88273106,13.883022 5.74468085,14.4253893 5.74468085,15 C5.74468085,15.5746107 5.88273106,16.116978 6.12747421,16.5957447 L0,16.5957447 L0,13.4042553 L6.12747421,13.4042553 Z M12.3831641,13.4042553 L33.8297872,13.4042553 L33.8297872,16.5957447 L12.3831641,16.5957447 C12.6279072,16.116978 12.7659574,15.5746107 12.7659574,15 C12.7659574,14.4253893 12.6279072,13.883022 12.3831641,13.4042553 Z"/>
    <circle cx="9.255" cy="15" r="3.511" stroke="#FFF" stroke-width="3"/>
    <path fill="#FFF" d="M15.7019423,24.893617 C15.4571991,25.3723837 15.3191489,25.914751 15.3191489,26.4893617 C15.3191489,27.0639724 15.4571991,27.6063397 15.7019423,28.0851064 L0,28.0851064 L0,24.893617 L15.7019423,24.893617 Z M21.9576322,24.893617 L33.8297872,24.893617 L33.8297872,28.0851064 L21.9576322,28.0851064 C22.2023753,27.6063397 22.3404255,27.0639724 22.3404255,26.4893617 C22.3404255,25.914751 22.2023753,25.3723837 21.9576322,24.893617 Z"/>
    <circle cx="18.83" cy="26.489" r="3.511" stroke="#FFF" stroke-width="3"/>
  </g>
</svg>
