<svg xmlns="http://www.w3.org/2000/svg" width="1440" height="778" viewBox="0 0 1440 778">
  <defs>
    <linearGradient id="homepagebackground-a" x1="0%" y1="0%" y2="98.529%">
      <stop offset="0%" stop-color="#CAFFFE"/>
      <stop offset="34.874%" stop-color="#DFF"/>
      <stop offset="64.654%" stop-color="#AAFFFE"/>
      <stop offset="100%" stop-color="#22D0CD"/>
    </linearGradient>
  </defs>
  <g fill="none" fill-rule="evenodd">
    <path fill="url(#homepagebackground-a)" d="M0,0 L1440,0 L1440,755.9205 C1254.10938,696.414708 1111.29427,669.415408 1011.55469,674.922598 C714.124821,691.345395 681.131816,761.243839 419.234375,771.941891 C258.776042,778.496334 119.03125,754.599712 0,700.252027 L0,0 Z"/>
    <g fill="#FFF" transform="translate(0 587)">
      <path d="M0,0.184388621 C90.691156,1.32512343 147.852131,54.4375 291.790541,94.6835938 C387.74948,121.514323 543.382277,130.869792 758.688929,122.75 C469.143711,213.171875 216.247401,209.990885 2.94809871e-13,113.207031" opacity=".421"/>
      <path d="M100.462578,150.703125 C348.923187,81.234375 536.574361,52.1666667 663.416099,63.5 C790.257838,74.8333333 895.742059,83.5572917 979.868763,89.671875 C931.91658,90.9609375 811.094075,113.983073 617.401247,158.738281 C423.70842,203.49349 251.39553,200.815104 100.462578,150.703125 Z" opacity=".27"/>
      <path d="M1045.79002,84.3984375 C1130.69906,56.8789062 1279.08914,42.4296875 1439.15411,70.2382812 L1439.15411,168.655698 C1271.17074,116.809712 1140.04938,88.7239583 1045.79002,84.3984375 Z" opacity=".2"/>
    </g>
  </g>
</svg>
