<svg xmlns="http://www.w3.org/2000/svg" width="45" height="45" viewBox="0 0 45 45">
  <defs>
    <linearGradient id="loanhistory-a" x1="100%" x2="0%" y1="0%" y2="100%">
      <stop offset="0%" stop-color="#B4EC51"/>
      <stop offset="100%" stop-color="#429321"/>
    </linearGradient>
  </defs>
  <path fill="url(#loanhistory-a)" d="M644,752.5 C644,764.925625 633.925625,775 621.5,775 C609.074375,775 599,764.925625 599,752.5 L602.75,752.5 C602.75,762.83875 611.16125,771.25 621.5,771.25 C631.83875,771.25 640.25,762.83875 640.25,752.5 C640.25,742.16125 631.83875,733.75 621.5,733.75 C616.293125,733.75 611.586875,735.889375 608.189375,739.331875 L612.05375,743.19625 L599,745.735 L601.446875,732.585625 L605.5325,736.673125 C609.605,732.555625 615.24875,730 621.5,730 C633.925625,730 644,740.074375 644,752.5 Z M619.625,741.25 L619.625,756.25 L632.75,756.25 L632.75,752.5 L623.375,752.5 L623.375,741.25 L619.625,741.25 Z" transform="translate(-599 -730)"/>
</svg>
