<svg xmlns="http://www.w3.org/2000/svg" width="40" height="40" viewBox="0 0 40 40">
  <defs>
    <radialGradient id="loanicon-a" cx="49.879%" cy="5.886%" r="145.888%" fx="49.879%" fy="5.886%">
      <stop offset="0%" stop-color="#B0D6CA"/>
      <stop offset="52.208%" stop-color="#3AD29F"/>
      <stop offset="87.754%" stop-color="#FFF"/>
      <stop offset="100%" stop-color="#FFF"/>
    </radialGradient>
  </defs>
  <path fill="url(#loanicon-a)" fill-rule="evenodd" d="M27,3 C38.0383333,3 47,11.9616667 47,23 C47,34.0383333 38.0383333,43 27,43 C15.9616667,43 7,34.0383333 7,23 C7,11.9616667 15.9616667,3 27,3 Z M30.475,26.3333333 L15.475,26.3333333 L15.475,29.6666667 L30.475,29.6666667 L30.475,34.6666667 L38.8083333,28 L30.475,21.3333333 L30.475,26.3333333 Z M23.8083333,16.3333333 L23.8083333,11.3333333 L15.475,18 L23.8083333,24.6666667 L23.8083333,19.6666667 L38.8083333,19.6666667 L38.8083333,16.3333333 L23.8083333,16.3333333 Z" transform="translate(-7 -3)"/>
</svg>
