<svg xmlns="http://www.w3.org/2000/svg" width="48" height="40" viewBox="0 0 48 40">
  <path fill="#FFF" d="M514,162.414 C508.124,158.754 499.168,157.28 490,157 L490,192.428 C497.874,192.668 505.59,193.79 511.334,196.418 C513.026,197.194 514.968,197.194 516.668,196.418 C522.412,193.79 530.126,192.668 538,192.428 L538,157 C528.832,157.28 519.876,158.754 514,162.414 Z M494,188.622 L494,161.214 C504.314,161.992 509.054,164.14 512,165.882 L512,192.218 C508.95,191.126 502.568,189.208 494,188.622 Z M534,188.622 C525.434,189.208 519.05,191.126 516,192.22 L516,165.878 C518.906,164.156 523.66,161.994 534,161.214 L534,188.622 Z" transform="translate(-490 -157)"/>
</svg>
