<svg xmlns="http://www.w3.org/2000/svg" xmlns:xlink="http://www.w3.org/1999/xlink" width="208" height="150" viewBox="0 0 208 150">
  <defs>
    <path id="magazineicon-b" d="M190.074591,0.480890991 C189.970793,0.481944195 183.594185,1.91075499 183.487758,1.91075499 C166.584534,1.91075499 135.184457,2.14674483 118.281233,2.14674483 C107.847571,2.14674483 105.527078,2.69067627 98.4299146,1.91075496 C91.4775933,1.14675066 88.9592996,0.130735362 81.4389899,0.480890958 C73.9186802,0.831046555 12.968279,2.26020773 0.198049546,0.130735236 C0.198050786,39.2612991 0,140.532931 0,140.532931 C0,140.532931 16.1464771,139.533836 30.7930188,139.876311 C45.4395605,140.218787 59.8217565,141.928815 81.4389899,141.376064 C103.056223,140.823313 98.8733201,139.876311 99.7539668,139.876311 C100.6839,139.876311 98.1225793,141.376064 118.281237,141.376064 C143.656908,141.376064 152.147847,139.876311 169.111467,139.876311 C188.077212,139.278075 199.026068,141.37606 199.026068,141.37606 L199.705475,0.480890991 C199.705475,0.480890991 199.953104,0.380656478 190.074591,0.480890991 Z"/>
    <filter id="magazineicon-a" width="108%" height="111.3%" x="-4%" y="-2.8%" filterUnits="objectBoundingBox">
      <feOffset dy="4" in="SourceAlpha" result="shadowOffsetOuter1"/>
      <feGaussianBlur in="shadowOffsetOuter1" result="shadowBlurOuter1" stdDeviation="2"/>
      <feColorMatrix in="shadowBlurOuter1" values="0 0 0 0 0   0 0 0 0 0   0 0 0 0 0  0 0 0 0.5 0"/>
    </filter>
    <radialGradient id="magazineicon-c" cy="-23.991%" r="154.674%" fx="50%" fy="-23.991%" gradientTransform="scale(-.72379 -1) rotate(-66.81 .268 .903)">
      <stop offset="0%" stop-color="#B0D6CA"/>
      <stop offset="24.577%" stop-color="#3AD29F"/>
      <stop offset="91.194%" stop-color="#FFF"/>
      <stop offset="100%" stop-color="#FFF"/>
    </radialGradient>
    <linearGradient id="magazineicon-e" x1="0%" y1="50%" y2="50%">
      <stop offset="0%" stop-color="#7F7F7F" stop-opacity=".5"/>
      <stop offset="12.529%" stop-color="#FFF" stop-opacity=".96"/>
      <stop offset="41.029%" stop-color="#FFF" stop-opacity=".583"/>
      <stop offset="49.598%" stop-color="#7F7F7F" stop-opacity=".5"/>
      <stop offset="50.133%" stop-color="#FFF"/>
      <stop offset="100%" stop-color="#FFF"/>
    </linearGradient>
    <path id="magazineicon-d" d="M151.434039,0.765171607 C113.029282,0.765171607 99.5447644,1.38765392 99.5447644,1.38765392 C99.5447644,1.38765392 88.8586202,1.27290158e-07 81.4139149,0.354232031 C73.9692096,0.708463934 13.4517185,2.12876411 0.910469973,0.765171628 C0.910471201,40.3512706 0.91047041,141.372413 0.91047041,141.372413 C0.91047041,141.372413 16.7778115,141.02595 31.2771062,141.372413 C45.7764009,141.718875 60.0140074,143.44881 81.4139149,142.889624 C102.813822,142.330439 98.6729714,141.372413 99.5447646,141.372413 C100.465349,141.372413 97.9297781,142.889624 117.885773,142.889624 C143.006333,142.889624 151.41191,141.372413 168.204989,141.372413 C186.980064,140.767211 198.482549,141.372413 198.482549,141.372413 L198.482549,0 C198.482549,0 169.612346,0.765171607 151.434039,0.765171607 Z"/>
  </defs>
  <g fill="none" fill-rule="evenodd" transform="translate(4)">
    <g transform="translate(0 .303)">
      <use fill="#000" filter="url(#magazineicon-a)" xlink:href="#magazineicon-b"/>
      <use fill="#FFF" xlink:href="#magazineicon-b"/>
    </g>
    <use fill="url(#magazineicon-c)" xlink:href="#magazineicon-d"/>
    <use fill="url(#magazineicon-e)" fill-opacity=".5" xlink:href="#magazineicon-d" style="mix-blend-mode:multiply"/>
  </g>
</svg>
