<svg xmlns="http://www.w3.org/2000/svg" width="44" height="40" viewBox="0 0 44 40">
  <path fill="#FFF" d="M906,157 L906,197 L949.636364,197 L949.636364,157 L906,157 Z M913.272727,193.363636 L909.636364,193.363636 L909.636364,189.727273 L913.272727,189.727273 L913.272727,193.363636 Z M913.272727,186.090909 L909.636364,186.090909 L909.636364,182.454545 L913.272727,182.454545 L913.272727,186.090909 Z M913.272727,178.818182 L909.636364,178.818182 L909.636364,175.181818 L913.272727,175.181818 L913.272727,178.818182 Z M913.272727,171.545455 L909.636364,171.545455 L909.636364,167.909091 L913.272727,167.909091 L913.272727,171.545455 Z M913.272727,164.272727 L909.636364,164.272727 L909.636364,160.636364 L913.272727,160.636364 L913.272727,164.272727 Z M938.727273,193.363636 L916.909091,193.363636 L916.909091,178.818182 L938.727273,178.818182 L938.727273,193.363636 Z M938.727273,175.181818 L916.909091,175.181818 L916.909091,160.636364 L938.727273,160.636364 L938.727273,175.181818 Z M946,193.363636 L942.363636,193.363636 L942.363636,189.727273 L946,189.727273 L946,193.363636 Z M946,186.090909 L942.363636,186.090909 L942.363636,182.454545 L946,182.454545 L946,186.090909 Z M946,178.818182 L942.363636,178.818182 L942.363636,175.181818 L946,175.181818 L946,178.818182 Z M946,171.545455 L942.363636,171.545455 L942.363636,167.909091 L946,167.909091 L946,171.545455 Z M946,164.272727 L942.363636,164.272727 L942.363636,160.636364 L946,160.636364 L946,164.272727 Z" transform="translate(-906 -157)"/>
</svg>
