<svg xmlns="http://www.w3.org/2000/svg" xmlns:xlink="http://www.w3.org/1999/xlink" width="208" height="229" viewBox="0 0 208 229">
  <defs>
    <radialGradient id="movieicon-c" cx="52.996%" cy="46.888%" r="201.015%" fx="52.996%" fy="46.888%" gradientTransform="matrix(.04145 .99895 -1.0546 .05346 1.002 -.086)">
      <stop offset="0%" stop-color="#3AD29F"/>
      <stop offset="100%" stop-color="#FFF"/>
    </radialGradient>
    <path id="movieicon-b" d="M-1.70530257e-13,0.0577822587 L220.640569,0.0577822587 L220.640569,199.670685 L-1.70530257e-13,199.670685 L-1.70530257e-13,0.0577822587 Z M9.25266904,13.0445377 L9.25266904,20.5774784 C9.25266904,22.2353067 10.5963615,23.5835887 12.2538903,23.5835887 L19.7745795,23.5835887 C21.4297115,23.5835887 22.7758007,22.2377073 22.7758007,20.5774784 L22.7758007,13.0445377 C22.7758007,11.3867095 21.4321082,10.0384274 19.7745795,10.0384274 L12.2538903,10.0384274 C10.5987583,10.0384274 9.25266904,11.3843088 9.25266904,13.0445377 Z M40.569395,13.0445377 L40.569395,20.5774784 C40.569395,22.2353067 41.9130875,23.5835887 43.5706162,23.5835887 L51.0913055,23.5835887 C52.7464375,23.5835887 54.0925267,22.2377073 54.0925267,20.5774784 L54.0925267,13.0445377 C54.0925267,11.3867095 52.7488342,10.0384274 51.0913055,10.0384274 L43.5706162,10.0384274 C41.9154843,10.0384274 40.569395,11.3843088 40.569395,13.0445377 Z M72.5978648,13.0445377 L72.5978648,20.5774784 C72.5978648,22.2353067 73.9415573,23.5835887 75.599086,23.5835887 L83.1197752,23.5835887 C84.7749072,23.5835887 86.1209964,22.2377073 86.1209964,20.5774784 L86.1209964,13.0445377 C86.1209964,11.3867095 84.7773039,10.0384274 83.1197752,10.0384274 L75.599086,10.0384274 C73.943954,10.0384274 72.5978648,11.3843088 72.5978648,13.0445377 Z M103.914591,13.0445377 L103.914591,20.5774784 C103.914591,22.2353067 105.258283,23.5835887 106.915812,23.5835887 L114.436501,23.5835887 C116.091633,23.5835887 117.437722,22.2377073 117.437722,20.5774784 L117.437722,13.0445377 C117.437722,11.3867095 116.09403,10.0384274 114.436501,10.0384274 L106.915812,10.0384274 C105.26068,10.0384274 103.914591,11.3843088 103.914591,13.0445377 Z M135.94306,13.0445377 L135.94306,20.5774784 C135.94306,22.2353067 137.286753,23.5835887 138.944282,23.5835887 L146.464971,23.5835887 C148.120103,23.5835887 149.466192,22.2377073 149.466192,20.5774784 L149.466192,13.0445377 C149.466192,11.3867095 148.1225,10.0384274 146.464971,10.0384274 L138.944282,10.0384274 C137.28915,10.0384274 135.94306,11.3843088 135.94306,13.0445377 Z M167.259786,13.0445377 L167.259786,20.5774784 C167.259786,22.2353067 168.603479,23.5835887 170.261008,23.5835887 L177.781697,23.5835887 C179.436829,23.5835887 180.782918,22.2377073 180.782918,20.5774784 L180.782918,13.0445377 C180.782918,11.3867095 179.439226,10.0384274 177.781697,10.0384274 L170.261008,10.0384274 C168.605876,10.0384274 167.259786,11.3843088 167.259786,13.0445377 Z M199.288256,13.0445377 L199.288256,20.5774784 C199.288256,22.2353067 200.631949,23.5835887 202.289477,23.5835887 L209.810167,23.5835887 C211.465299,23.5835887 212.811388,22.2377073 212.811388,20.5774784 L212.811388,13.0445377 C212.811388,11.3867095 211.467695,10.0384274 209.810167,10.0384274 L202.289477,10.0384274 C200.634345,10.0384274 199.288256,11.3843088 199.288256,13.0445377 Z M9.25266904,179.150989 L9.25266904,186.68393 C9.25266904,188.341758 10.5963615,189.69004 12.2538903,189.69004 L19.7745795,189.69004 C21.4297115,189.69004 22.7758007,188.344159 22.7758007,186.68393 L22.7758007,179.150989 C22.7758007,177.493161 21.4321082,176.144879 19.7745795,176.144879 L12.2538903,176.144879 C10.5987583,176.144879 9.25266904,177.49076 9.25266904,179.150989 Z M40.569395,179.150989 L40.569395,186.68393 C40.569395,188.341758 41.9130875,189.69004 43.5706162,189.69004 L51.0913055,189.69004 C52.7464375,189.69004 54.0925267,188.344159 54.0925267,186.68393 L54.0925267,179.150989 C54.0925267,177.493161 52.7488342,176.144879 51.0913055,176.144879 L43.5706162,176.144879 C41.9154843,176.144879 40.569395,177.49076 40.569395,179.150989 Z M72.5978648,179.150989 L72.5978648,186.68393 C72.5978648,188.341758 73.9415573,189.69004 75.599086,189.69004 L83.1197752,189.69004 C84.7749072,189.69004 86.1209964,188.344159 86.1209964,186.68393 L86.1209964,179.150989 C86.1209964,177.493161 84.7773039,176.144879 83.1197752,176.144879 L75.599086,176.144879 C73.943954,176.144879 72.5978648,177.49076 72.5978648,179.150989 Z M103.914591,179.150989 L103.914591,186.68393 C103.914591,188.341758 105.258283,189.69004 106.915812,189.69004 L114.436501,189.69004 C116.091633,189.69004 117.437722,188.344159 117.437722,186.68393 L117.437722,179.150989 C117.437722,177.493161 116.09403,176.144879 114.436501,176.144879 L106.915812,176.144879 C105.26068,176.144879 103.914591,177.49076 103.914591,179.150989 Z M135.94306,179.150989 L135.94306,186.68393 C135.94306,188.341758 137.286753,189.69004 138.944282,189.69004 L146.464971,189.69004 C148.120103,189.69004 149.466192,188.344159 149.466192,186.68393 L149.466192,179.150989 C149.466192,177.493161 148.1225,176.144879 146.464971,176.144879 L138.944282,176.144879 C137.28915,176.144879 135.94306,177.49076 135.94306,179.150989 Z M167.259786,179.150989 L167.259786,186.68393 C167.259786,188.341758 168.603479,189.69004 170.261008,189.69004 L177.781697,189.69004 C179.436829,189.69004 180.782918,188.344159 180.782918,186.68393 L180.782918,179.150989 C180.782918,177.493161 179.439226,176.144879 177.781697,176.144879 L170.261008,176.144879 C168.605876,176.144879 167.259786,177.49076 167.259786,179.150989 Z M199.288256,179.150989 L199.288256,186.68393 C199.288256,188.341758 200.631949,189.69004 202.289477,189.69004 L209.810167,189.69004 C211.465299,189.69004 212.811388,188.344159 212.811388,186.68393 L212.811388,179.150989 C212.811388,177.493161 211.467695,176.144879 209.810167,176.144879 L202.289477,176.144879 C200.634345,176.144879 199.288256,177.49076 199.288256,179.150989 Z M9.25266904,28.7194325 L9.25266904,163.880003 C9.25266904,165.525343 10.5938651,166.877137 12.2483143,166.877137 L209.815743,166.877137 C211.471239,166.877137 212.811388,165.535274 212.811388,163.880003 L212.811388,28.7194325 C212.811388,27.0740921 211.470192,25.7222984 209.815743,25.7222984 L12.2483143,25.7222984 C10.5928179,25.7222984 9.25266904,27.064161 9.25266904,28.7194325 Z"/>
    <filter id="movieicon-a" width="106.3%" height="107%" x="-4.1%" y="-3.5%" filterUnits="objectBoundingBox">
      <feOffset dx="-2" in="SourceAlpha" result="shadowOffsetOuter1"/>
      <feGaussianBlur in="shadowOffsetOuter1" result="shadowBlurOuter1" stdDeviation="2"/>
      <feColorMatrix in="shadowBlurOuter1" values="0 0 0 0 0   0 0 0 0 0   0 0 0 0 0  0 0 0 0.5 0"/>
    </filter>
  </defs>
  <g fill="none" fill-rule="evenodd" transform="rotate(-90 113.329 109.492)">
    <use fill="#000" filter="url(#movieicon-a)" xlink:href="#movieicon-b"/>
    <use fill="url(#movieicon-c)" xlink:href="#movieicon-b"/>
    <g transform="translate(83.986 2.139)">
      <path fill="#FFF" d="M59.4280451,4.49043652 L57.045457,4.49043652 L57.045457,3.38440196 L59.2863156,3.38440196 L59.2863156,2.36865594 L57.045457,2.36865594 L57.045457,1.28895554 L59.4280451,1.28895554 L59.4280451,0.175396942 L55.6396533,0.175396942 L55.6396533,5.60399512 L59.4280451,5.60399512 L59.4280451,4.49043652 Z M64.2726874,5.60399512 L64.2726874,1.28895554 L65.8048985,1.28895554 L65.8048985,0.175396942 L61.3346728,0.175396942 L61.3346728,1.28895554 L62.8668838,1.28895554 L62.8668838,5.60399512 L64.2726874,5.60399512 Z M72.0045725,5.60399512 L73.4027151,5.60399512 L73.4027151,0.175396942 L72.000742,0.175396942 L70.5949383,1.11590252 L70.5949383,2.30470156 L71.9777588,1.38676812 L72.0045725,1.38676812 L72.0045725,5.60399512 Z M78.258849,5.73942792 C79.5497368,5.73942792 80.4690634,4.93435515 80.4690634,3.79070037 C80.4690634,2.75990626 79.6914663,2.00373978 78.6495628,2.00373978 C77.9332541,2.00373978 77.4199634,2.3611319 77.2131149,2.88781502 L77.1863012,2.88781502 C77.1288433,1.77801844 77.5655235,1.09709241 78.258849,1.09709241 C78.6304101,1.09709241 78.9406829,1.29271757 79.0326155,1.58991733 L80.4001139,1.58991733 C80.2545538,0.67950793 79.377363,0.0399641392 78.2626795,0.0399641392 C76.7955874,0.0399641392 75.8571082,1.12342656 75.8571082,2.91038715 C75.8571082,3.70417386 76.0524651,4.38133787 76.4240263,4.86287673 C76.8300622,5.43470412 77.4850824,5.73942792 78.258849,5.73942792 L78.258849,5.73942792 Z M78.2435269,4.67477561 C77.7570499,4.67477561 77.3739971,4.30609743 77.3739971,3.8283206 C77.3739971,3.35430579 77.7532193,2.99315164 78.2473574,2.99315164 C78.7414954,2.99315164 79.1207177,3.35430579 79.1207177,3.83208262 C79.1207177,4.30609743 78.7338344,4.67477561 78.2435269,4.67477561 L78.2435269,4.67477561 Z M84.7774318,5.73942792 C86.2215407,5.73942792 87.1140537,4.64844146 87.1140537,2.87652895 C87.1140537,1.09333038 86.2100492,0.0362021169 84.7774318,0.0362021169 C83.340984,0.0362021169 82.433149,1.09709241 82.433149,2.88029098 C82.433149,4.6559655 83.3294924,5.73942792 84.7774318,5.73942792 L84.7774318,5.73942792 Z M84.7774318,4.66348955 C84.2258359,4.66348955 83.8619357,4.05027991 83.8619357,2.87652895 C83.8619357,1.71030204 84.2296664,1.11214049 84.7774318,1.11214049 C85.3251973,1.11214049 85.6852669,1.70654002 85.6852669,2.88029098 C85.6852669,4.05404193 85.3251973,4.66348955 84.7774318,4.66348955 L84.7774318,4.66348955 Z M94.3134954,5.73942792 C95.6426885,5.73942792 96.5390319,4.94940324 96.5390319,3.76812824 C96.5390319,2.70723795 95.7805874,1.94354742 94.7310229,1.94354742 C94.1487827,1.94354742 93.7159331,2.18807887 93.5052541,2.57556717 L93.4784404,2.57556717 L93.5818646,1.23628723 L96.1942844,1.23628723 L96.1942844,0.175396942 L92.4939948,0.175396942 L92.2335189,3.34301972 L93.4746098,3.34301972 C93.6508141,3.06463007 93.9649174,2.89910109 94.3288175,2.89910109 C94.8574303,2.89910109 95.2136694,3.26777927 95.2136694,3.80198644 C95.2136694,4.31738349 94.8535998,4.67853763 94.324987,4.67853763 C93.8576626,4.67853763 93.4861014,4.40767203 93.4209825,4.01642171 L92.1454168,4.01642171 C92.1645694,5.02840571 93.0609129,5.73942792 94.3134954,5.73942792 L94.3134954,5.73942792 Z M100.782281,5.73942792 C102.22639,5.73942792 103.118903,4.64844146 103.118903,2.87652895 C103.118903,1.09333038 102.214899,0.0362021169 100.782281,0.0362021169 C99.3458336,0.0362021169 98.4379985,1.09709241 98.4379985,2.88029098 C98.4379985,4.6559655 99.334342,5.73942792 100.782281,5.73942792 L100.782281,5.73942792 Z M100.782281,4.66348955 C100.230685,4.66348955 99.8667853,4.05027991 99.8667853,2.87652895 C99.8667853,1.71030204 100.234516,1.11214049 100.782281,1.11214049 C101.330047,1.11214049 101.690116,1.70654002 101.690116,2.88029098 C101.690116,4.05404193 101.330047,4.66348955 100.782281,4.66348955 L100.782281,4.66348955 Z M105.343465,5.60399512 L106.814387,5.60399512 L109.039924,1.24004925 L109.039924,0.175396942 L104.929768,0.175396942 L104.929768,1.23628723 L107.657103,1.23628723 L107.657103,1.26262139 L105.343465,5.60399512 Z M111.291299,5.60399512 L112.762222,5.60399512 L114.987758,1.24004925 L114.987758,0.175396942 L110.877602,0.175396942 L110.877602,1.23628723 L113.604938,1.23628723 L113.604938,1.26262139 L111.291299,5.60399512 Z"/>
      <g transform="translate(0 188.92)">
        <path stroke="#FFF" stroke-width="1.5" d="M0.75,7.05921081 L9.75826535,5 L0.75,2.94078919 L0.75,7.05921081 Z"/>
        <text fill="#FFF" font-family=".SFNSText, .SF NS Text" font-size="8" letter-spacing="1.382">
          <tspan x="15.658" y="8">23А</tspan>
        </text>
      </g>
    </g>
  </g>
</svg>
