<svg xmlns="http://www.w3.org/2000/svg" xmlns:xlink="http://www.w3.org/1999/xlink" width="38" height="42" viewBox="0 0 38 42">
  <defs>
    <radialGradient id="movieicon-c" cx="52.996%" cy="46.888%" r="201.015%" fx="52.996%" fy="46.888%" gradientTransform="matrix(.04145 .99895 -1.05288 .05355 1.002 -.086)">
      <stop offset="0%" stop-color="#3AD29F"/>
      <stop offset="100%" stop-color="#FFF"/>
    </radialGradient>
    <path id="movieicon-b" d="M-1.70530257e-13,0.0104583274 L40,0.0104583274 L40,36.1394906 L-1.70530257e-13,36.1394906 L-1.70530257e-13,0.0104583274 Z M1.67741935,2.19997446 L1.67741935,3.88545833 C1.67741935,4.09220889 1.84892318,4.26852284 2.06048387,4.26852284 L3.74596774,4.26852284 C3.9527183,4.26852284 4.12903226,4.09701902 4.12903226,3.88545833 L4.12903226,2.19997446 C4.12903226,1.99322389 3.95752843,1.81690994 3.74596774,1.81690994 L2.06048387,1.81690994 C1.85373331,1.81690994 1.67741935,1.98841377 1.67741935,2.19997446 Z M7.35483871,2.19997446 L7.35483871,3.88545833 C7.35483871,4.09220889 7.52634254,4.26852284 7.73790323,4.26852284 L9.4233871,4.26852284 C9.63013766,4.26852284 9.80645161,4.09701902 9.80645161,3.88545833 L9.80645161,2.19997446 C9.80645161,1.99322389 9.63494779,1.81690994 9.4233871,1.81690994 L7.73790323,1.81690994 C7.53115266,1.81690994 7.35483871,1.98841377 7.35483871,2.19997446 Z M13.1612903,2.19997446 L13.1612903,3.88545833 C13.1612903,4.09220889 13.3327941,4.26852284 13.5443548,4.26852284 L15.2298387,4.26852284 C15.4365893,4.26852284 15.6129032,4.09701902 15.6129032,3.88545833 L15.6129032,2.19997446 C15.6129032,1.99322389 15.4413994,1.81690994 15.2298387,1.81690994 L13.5443548,1.81690994 C13.3376043,1.81690994 13.1612903,1.98841377 13.1612903,2.19997446 Z M18.8387097,2.19997446 L18.8387097,3.88545833 C18.8387097,4.09220889 19.0102135,4.26852284 19.2217742,4.26852284 L20.9072581,4.26852284 C21.1140086,4.26852284 21.2903226,4.09701902 21.2903226,3.88545833 L21.2903226,2.19997446 C21.2903226,1.99322389 21.1188188,1.81690994 20.9072581,1.81690994 L19.2217742,1.81690994 C19.0150236,1.81690994 18.8387097,1.98841377 18.8387097,2.19997446 Z M24.6451613,2.19997446 L24.6451613,3.88545833 C24.6451613,4.09220889 24.8166651,4.26852284 25.0282258,4.26852284 L26.7137097,4.26852284 C26.9204602,4.26852284 27.0967742,4.09701902 27.0967742,3.88545833 L27.0967742,2.19997446 C27.0967742,1.99322389 26.9252704,1.81690994 26.7137097,1.81690994 L25.0282258,1.81690994 C24.8214752,1.81690994 24.6451613,1.98841377 24.6451613,2.19997446 Z M30.3225806,2.19997446 L30.3225806,3.88545833 C30.3225806,4.09220889 30.4940845,4.26852284 30.7056452,4.26852284 L32.391129,4.26852284 C32.5978796,4.26852284 32.7741935,4.09701902 32.7741935,3.88545833 L32.7741935,2.19997446 C32.7741935,1.99322389 32.6026897,1.81690994 32.391129,1.81690994 L30.7056452,1.81690994 C30.4988946,1.81690994 30.3225806,1.98841377 30.3225806,2.19997446 Z M36.1290323,2.19997446 L36.1290323,3.88545833 C36.1290323,4.09220889 36.3005361,4.26852284 36.5120968,4.26852284 L38.1975806,4.26852284 C38.4043312,4.26852284 38.5806452,4.09701902 38.5806452,3.88545833 L38.5806452,2.19997446 C38.5806452,1.99322389 38.4091413,1.81690994 38.1975806,1.81690994 L36.5120968,1.81690994 C36.3053462,1.81690994 36.1290323,1.98841377 36.1290323,2.19997446 Z M1.67741935,32.2644906 L1.67741935,33.9499745 C1.67741935,34.156725 1.84892318,34.333039 2.06048387,34.333039 L3.74596774,34.333039 C3.9527183,34.333039 4.12903226,34.1615351 4.12903226,33.9499745 L4.12903226,32.2644906 C4.12903226,32.05774 3.95752843,31.8814261 3.74596774,31.8814261 L2.06048387,31.8814261 C1.85373331,31.8814261 1.67741935,32.0529299 1.67741935,32.2644906 Z M7.35483871,32.2644906 L7.35483871,33.9499745 C7.35483871,34.156725 7.52634254,34.333039 7.73790323,34.333039 L9.4233871,34.333039 C9.63013766,34.333039 9.80645161,34.1615351 9.80645161,33.9499745 L9.80645161,32.2644906 C9.80645161,32.05774 9.63494779,31.8814261 9.4233871,31.8814261 L7.73790323,31.8814261 C7.53115266,31.8814261 7.35483871,32.0529299 7.35483871,32.2644906 Z M13.1612903,32.2644906 L13.1612903,33.9499745 C13.1612903,34.156725 13.3327941,34.333039 13.5443548,34.333039 L15.2298387,34.333039 C15.4365893,34.333039 15.6129032,34.1615351 15.6129032,33.9499745 L15.6129032,32.2644906 C15.6129032,32.05774 15.4413994,31.8814261 15.2298387,31.8814261 L13.5443548,31.8814261 C13.3376043,31.8814261 13.1612903,32.0529299 13.1612903,32.2644906 Z M18.8387097,32.2644906 L18.8387097,33.9499745 C18.8387097,34.156725 19.0102135,34.333039 19.2217742,34.333039 L20.9072581,34.333039 C21.1140086,34.333039 21.2903226,34.1615351 21.2903226,33.9499745 L21.2903226,32.2644906 C21.2903226,32.05774 21.1188188,31.8814261 20.9072581,31.8814261 L19.2217742,31.8814261 C19.0150236,31.8814261 18.8387097,32.0529299 18.8387097,32.2644906 Z M24.6451613,32.2644906 L24.6451613,33.9499745 C24.6451613,34.156725 24.8166651,34.333039 25.0282258,34.333039 L26.7137097,34.333039 C26.9204602,34.333039 27.0967742,34.1615351 27.0967742,33.9499745 L27.0967742,32.2644906 C27.0967742,32.05774 26.9252704,31.8814261 26.7137097,31.8814261 L25.0282258,31.8814261 C24.8214752,31.8814261 24.6451613,32.0529299 24.6451613,32.2644906 Z M30.3225806,32.2644906 L30.3225806,33.9499745 C30.3225806,34.156725 30.4940845,34.333039 30.7056452,34.333039 L32.391129,34.333039 C32.5978796,34.333039 32.7741935,34.1615351 32.7741935,33.9499745 L32.7741935,32.2644906 C32.7741935,32.05774 32.6026897,31.8814261 32.391129,31.8814261 L30.7056452,31.8814261 C30.4988946,31.8814261 30.3225806,32.0529299 30.3225806,32.2644906 Z M36.1290323,32.2644906 L36.1290323,33.9499745 C36.1290323,34.156725 36.3005361,34.333039 36.5120968,34.333039 L38.1975806,34.333039 C38.4043312,34.333039 38.5806452,34.1615351 38.5806452,33.9499745 L38.5806452,32.2644906 C38.5806452,32.05774 38.4091413,31.8814261 38.1975806,31.8814261 L36.5120968,31.8814261 C36.3053462,31.8814261 36.1290323,32.0529299 36.1290323,32.2644906 Z M1.67741935,5.03660159 L1.67741935,29.8230247 C1.67741935,30.0272189 1.85179154,30.2040067 2.06689053,30.2040067 L38.191174,30.2040067 C38.4161148,30.2040067 38.5806452,30.0334353 38.5806452,29.8230247 L38.5806452,5.03660159 C38.5806452,4.83240747 38.406273,4.65561962 38.191174,4.65561962 L2.06689053,4.65561962 C1.84194971,4.65561962 1.67741935,4.82619106 1.67741935,5.03660159 Z"/>
    <filter id="movieicon-a" width="107.5%" height="108.3%" x="-3.8%" y="-4.2%" filterUnits="objectBoundingBox">
      <feOffset in="SourceAlpha" result="shadowOffsetOuter1"/>
      <feGaussianBlur in="shadowOffsetOuter1" result="shadowBlurOuter1" stdDeviation=".5"/>
      <feColorMatrix in="shadowBlurOuter1" values="0 0 0 0 0   0 0 0 0 0   0 0 0 0 0  0 0 0 0.5 0"/>
    </filter>
  </defs>
  <g fill="none" fill-rule="evenodd" transform="translate(1 1)">
    <g transform="rotate(-90 20 20)">
      <use fill="#000" filter="url(#movieicon-a)" xlink:href="#movieicon-b"/>
      <use fill="url(#movieicon-c)" xlink:href="#movieicon-b"/>
      <g transform="translate(15.226 .387)">
        <path fill="#FFF" d="M10.7737295,0.812748691 L10.3417893,0.812748691 L10.3417893,0.612561441 L10.7480353,0.612561441 L10.7480353,0.428716008 L10.3417893,0.428716008 L10.3417893,0.233295121 L10.7737295,0.233295121 L10.7737295,0.0317460529 L10.0869307,0.0317460529 L10.0869307,1.01429776 L10.7737295,1.01429776 L10.7737295,0.812748691 Z M11.6520162,1.01429776 L11.6520162,0.233295121 L11.9297913,0.233295121 L11.9297913,0.0317460529 L11.1193826,0.0317460529 L11.1193826,0.233295121 L11.3971576,0.233295121 L11.3971576,1.01429776 L11.6520162,1.01429776 Z M13.0537322,1.01429776 L13.3072019,1.01429776 L13.3072019,0.0317460529 L13.0530377,0.0317460529 L12.7981791,0.201973306 L12.7981791,0.417140555 L13.0488711,0.250998755 L13.0537322,0.250998755 L13.0537322,1.01429776 Z M14.187572,1.03881048 C14.4215974,1.03881048 14.5882625,0.893095955 14.5882625,0.686099615 C14.5882625,0.499530545 14.4472916,0.362667833 14.2584046,0.362667833 C14.1285448,0.362667833 14.0354901,0.42735419 13.9979905,0.522681452 L13.9931295,0.522681452 C13.9827129,0.321813293 14.0618788,0.198568761 14.187572,0.198568761 C14.2549324,0.198568761 14.3111819,0.23397603 14.3278484,0.287767842 L14.5757626,0.287767842 C14.549374,0.122987861 14.3903477,0.00723332837 14.1882664,0.00723332837 C13.9222968,0.00723332837 13.7521596,0.203335124 13.7521596,0.526766906 C13.7521596,0.670438708 13.7875759,0.79300233 13.8549364,0.880158684 C13.9285468,0.983656854 14.0472956,1.03881048 14.187572,1.03881048 L14.187572,1.03881048 Z M14.1847942,0.846113233 C14.0966007,0.846113233 14.0271569,0.77938415 14.0271569,0.692908705 C14.0271569,0.607114169 14.0959062,0.541746904 14.1854887,0.541746904 C14.2750711,0.541746904 14.3438204,0.607114169 14.3438204,0.693589614 C14.3438204,0.77938415 14.2736822,0.846113233 14.1847942,0.846113233 L14.1847942,0.846113233 Z M15.369328,1.03881048 C15.6311309,1.03881048 15.7929349,0.84134687 15.7929349,0.520638725 C15.7929349,0.197887852 15.6290476,0.00655241935 15.369328,0.00655241935 C15.1089139,0.00655241935 14.9443322,0.198568761 14.9443322,0.521319634 C14.9443322,0.842708688 15.1068306,1.03881048 15.369328,1.03881048 L15.369328,1.03881048 Z M15.369328,0.844070506 C15.269329,0.844070506 15.2033574,0.733082337 15.2033574,0.520638725 C15.2033574,0.30955693 15.2700234,0.201292397 15.369328,0.201292397 C15.4686325,0.201292397 15.5339097,0.308876021 15.5339097,0.521319634 C15.5339097,0.733763246 15.4686325,0.844070506 15.369328,0.844070506 L15.369328,0.844070506 Z M17.098124,1.03881048 C17.3390938,1.03881048 17.5015922,0.895819591 17.5015922,0.682014161 C17.5015922,0.489997819 17.3640936,0.351773289 17.1738177,0.351773289 C17.0682632,0.351773289 16.9897917,0.396032375 16.9515977,0.466166003 L16.9467366,0.466166003 L16.9654864,0.223762395 L17.4390929,0.223762395 L17.4390929,0.0317460529 L16.7682662,0.0317460529 L16.7210444,0.605071442 L16.9460422,0.605071442 C16.9779863,0.554684175 17.0349302,0.524724179 17.1009018,0.524724179 C17.1967341,0.524724179 17.2613168,0.591453262 17.2613168,0.688142342 C17.2613168,0.781426877 17.1960397,0.846794142 17.1002073,0.846794142 C17.0154859,0.846794142 16.9481255,0.797768693 16.93632,0.726954156 L16.7050723,0.726954156 C16.7085445,0.91011868 16.8710429,1.03881048 17.098124,1.03881048 L17.098124,1.03881048 Z M18.2708523,1.03881048 C18.5326553,1.03881048 18.6944592,0.84134687 18.6944592,0.520638725 C18.6944592,0.197887852 18.530572,0.00655241935 18.2708523,0.00655241935 C18.0104382,0.00655241935 17.8458565,0.198568761 17.8458565,0.521319634 C17.8458565,0.842708688 18.0083549,1.03881048 18.2708523,1.03881048 L18.2708523,1.03881048 Z M18.2708523,0.844070506 C18.1708533,0.844070506 18.1048817,0.733082337 18.1048817,0.520638725 C18.1048817,0.30955693 18.1715477,0.201292397 18.2708523,0.201292397 C18.3701569,0.201292397 18.435434,0.308876021 18.435434,0.521319634 C18.435434,0.733763246 18.3701569,0.844070506 18.2708523,0.844070506 L18.2708523,0.844070506 Z M19.0977507,1.01429776 L19.3644147,1.01429776 L19.767883,0.224443304 L19.767883,0.0317460529 L19.0227514,0.0317460529 L19.0227514,0.223762395 L19.517191,0.223762395 L19.517191,0.228528758 L19.0977507,1.01429776 Z M20.1760355,1.01429776 L20.4426995,1.01429776 L20.8461678,0.224443304 L20.8461678,0.0317460529 L20.1010362,0.0317460529 L20.1010362,0.223762395 L20.5954758,0.223762395 L20.5954758,0.228528758 L20.1760355,1.01429776 Z"/>
        <g transform="translate(0 34.194)">
          <path stroke="#FFF" stroke-width=".5" d="M0.25,0.552026354 L0.25,0.258064516 L-0.0401467164,0.504819944 L0.25,0.552026354 Z M0.82243912,0.64516129 L2.33908224,0.891916718 L2.33908224,0.398405863 L0.82243912,0.64516129 Z M0.25,0.738296226 L-0.0401467164,0.785502637 L0.25,1.03225806 L0.25,0.738296226 Z"/>
          <text fill="#FFF" font-family=".SFNSText, .SF NS Text" font-size="1.032" letter-spacing=".178">
            <tspan x="2.839" y="1">23А</tspan>
          </text>
        </g>
        <text fill="#FFF" font-family=".SFNSText, .SF NS Text" font-size="1.548" letter-spacing=".267">
          <tspan x="18.387" y="34.935">24</tspan>
        </text>
      </g>
    </g>
    <path stroke="#FFF" stroke-linecap="square" stroke-width=".5" d="M30.9677419,0.129032258 L30.9677419,40"/>
  </g>
</svg>
