<svg xmlns="http://www.w3.org/2000/svg" xmlns:xlink="http://www.w3.org/1999/xlink" width="208" height="208" viewBox="0 0 208 208">
  <defs>
    <linearGradient id="musicicon-c" x1="50%" x2="50%" y1="0%" y2="96.053%">
      <stop offset="0%" stop-color="#1FBBB9"/>
      <stop offset="100%" stop-color="#FFF"/>
    </linearGradient>
    <polygon id="musicicon-b" points="3.325 3.325 3.325 196.675 196.675 196.675 196.675 3.325"/>
    <filter id="musicicon-a" width="107.2%" height="107.2%" x="-3.6%" y="-2.6%" filterUnits="objectBoundingBox">
      <feOffset dy="2" in="SourceAlpha" result="shadowOffsetOuter1"/>
      <feGaussianBlur in="shadowOffsetOuter1" result="shadowBlurOuter1" stdDeviation="2"/>
      <feComposite in="shadowBlurOuter1" in2="SourceAlpha" operator="out" result="shadowBlurOuter1"/>
      <feColorMatrix in="shadowBlurOuter1" values="0 0 0 0 0   0 0 0 0 0   0 0 0 0 0  0 0 0 0.5 0"/>
    </filter>
    <rect id="musicicon-e" width="193.349" height="193.349" x="3.325" y="3.325"/>
    <filter id="musicicon-d" width="107.2%" height="107.2%" x="-3.6%" y="-2.6%" filterUnits="objectBoundingBox">
      <feOffset dy="2" in="SourceAlpha" result="shadowOffsetOuter1"/>
      <feGaussianBlur in="shadowOffsetOuter1" result="shadowBlurOuter1" stdDeviation="2"/>
      <feComposite in="shadowBlurOuter1" in2="SourceAlpha" operator="out" result="shadowBlurOuter1"/>
      <feColorMatrix in="shadowBlurOuter1" values="0 0 0 0 0   0 0 0 0 0   0 0 0 0 0  0 0 0 0.5 0"/>
    </filter>
    <radialGradient id="musicicon-h" cx="49.879%" cy="5.886%" r="145.888%" fx="49.879%" fy="5.886%">
      <stop offset="0%" stop-color="#B0D6CA"/>
      <stop offset="52.208%" stop-color="#3AD29F"/>
      <stop offset="87.754%" stop-color="#FFF"/>
      <stop offset="100%" stop-color="#FFF"/>
    </radialGradient>
    <polygon id="musicicon-g" points="3.325 3.325 3.325 196.675 196.675 196.675 196.675 3.325"/>
    <filter id="musicicon-f" width="107.2%" height="107.2%" x="-3.6%" y="-2.6%" filterUnits="objectBoundingBox">
      <feOffset dy="2" in="SourceAlpha" result="shadowOffsetOuter1"/>
      <feGaussianBlur in="shadowOffsetOuter1" result="shadowBlurOuter1" stdDeviation="2"/>
      <feComposite in="shadowBlurOuter1" in2="SourceAlpha" operator="out" result="shadowBlurOuter1"/>
      <feColorMatrix in="shadowBlurOuter1" values="0 0 0 0 0   0 0 0 0 0   0 0 0 0 0  0 0 0 0.5 0"/>
    </filter>
  </defs>
  <g fill="none" fill-rule="evenodd" transform="translate(4 2)">
    <g transform="rotate(2 100 100)">
      <use fill="#000" filter="url(#musicicon-a)" xlink:href="#musicicon-b"/>
      <path fill="url(#musicicon-c)" fill-opacity=".86" stroke="#FFF" stroke-linejoin="square" d="M3.82541568,3.82541568 L3.82541568,196.174584 L196.174584,196.174584 L196.174584,3.82541568 L3.82541568,3.82541568 Z"/>
    </g>
    <use fill="#000" filter="url(#musicicon-d)" xlink:href="#musicicon-e"/>
    <rect width="192.349" height="192.349" x="3.825" y="3.825" fill="#3AD29F" stroke="#FFF" stroke-linejoin="square"/>
    <g transform="rotate(-1 100 100)">
      <use fill="#000" filter="url(#musicicon-f)" xlink:href="#musicicon-g"/>
      <path fill="url(#musicicon-h)" fill-opacity=".86" stroke="#FFF" stroke-linejoin="square" d="M3.82541568,3.82541568 L3.82541568,196.174584 L196.174584,196.174584 L196.174584,3.82541568 L3.82541568,3.82541568 Z"/>
    </g>
    <path fill="#FFF" d="M119.418319,79.3218826 L119.418319,112.752106 L119.417254,112.752106 C119.377109,116.07129 116.636997,119.570946 112.416165,121.264466 C107.231516,123.344862 101.776515,121.911747 100.232204,118.063227 C98.6878935,114.214352 101.639385,109.408053 106.824389,107.327657 C109.610685,106.209657 112.474428,106.107342 114.767624,106.848412 C115.279197,107.013608 115.801428,106.626375 115.801428,106.088869 L115.801428,82.3486889 C115.801428,81.1610582 114.71398,80.2711345 113.549797,80.5059607 L90.9478666,85.0671304 C90.0643376,85.2454704 89.4291346,86.0217112 89.4291346,86.9230032 L89.4291346,118.277803 L89.4280688,118.277803 C89.4103059,121.609422 86.6659304,125.131104 82.4276911,126.831729 C77.2430419,128.912125 71.7880406,127.478655 70.2437299,123.630135 C68.6997745,119.781615 71.6509106,114.975316 76.8359151,112.89492 C79.6218558,111.777275 82.485243,111.67425 84.7784396,112.41532 C85.2900125,112.580516 85.8122432,112.193283 85.8122432,111.655777 L85.8122432,86.1034208 L85.8122432,74.7557392 C85.8122432,73.2039681 86.9060855,71.8674839 88.4269491,71.5605401 L115.491287,66.0991442 C117.521592,65.6895306 119.418319,67.241657 119.418319,69.3128167 L119.418319,79.3218826 Z"/>
  </g>
</svg>
