<svg xmlns="http://www.w3.org/2000/svg" width="33" height="40" viewBox="0 0 33 40">
  <path fill="#FFF" fill-rule="evenodd" d="M803.451375,165.607608 L803.451375,187.261781 L803.450685,187.261781 C803.424682,189.411758 801.649795,191.678633 798.915783,192.775598 C795.557466,194.123159 792.02403,193.19487 791.023715,190.70202 C790.023399,188.20894 791.935205,185.095697 795.293753,183.748136 C797.098555,183.02396 798.953522,182.957686 800.438923,183.437709 C800.77029,183.544713 801.108561,183.293886 801.108561,182.94572 L801.108561,167.568199 C801.108561,166.79892 800.404175,166.222479 799.650084,166.374586 L785.009855,169.329049 C784.437556,169.444567 784.026108,169.947371 784.026108,170.531176 L784.026108,190.84101 L784.025418,190.84101 C784.013912,192.999041 782.236264,195.280183 779.490976,196.38175 C776.132659,197.729311 772.599224,196.800792 771.598908,194.307942 C770.598823,191.815092 772.510399,188.701849 775.868946,187.354288 C777.673518,186.630342 779.528255,186.563608 781.013656,187.043631 C781.345023,187.150635 781.683294,186.899808 781.683294,186.551642 L781.683294,170.000298 L781.683294,162.649923 C781.683294,161.644775 782.391822,160.779078 783.37695,160.580258 L800.90767,157.04268 C802.222784,156.777356 803.451375,157.782734 803.451375,159.124312 L803.451375,165.607608 Z" transform="translate(-771 -157)"/>
</svg>
