<svg xmlns="http://www.w3.org/2000/svg" width="75" height="45" viewBox="0 0 75 45">
  <defs>
    <linearGradient id="users-a" x1="100%" x2="0%" y1="0%" y2="100%">
      <stop offset="0%" stop-color="#FFA7E7"/>
      <stop offset="100%" stop-color="#EA6362"/>
    </linearGradient>
  </defs>
  <path fill="url(#users-a)" d="M56.240625,45 L18.75625,45 L18.75,42.66375 C18.75,37.9425 19.0625,35.21625 23.7125,33.92625 C28.975,32.4675 34.1625,31.16625 31.665625,25.6425 C24.271875,9.28125 29.559375,0 37.496875,0 C45.28125,0 50.703125,8.93625 43.328125,25.64625 C40.90625,31.13625 45.909375,32.44125 51.28125,33.93 C55.9375,35.22 56.246875,37.95 56.246875,42.67875 L56.240625,45 Z M71.275,36.6975 C67.24375,35.58 63.49375,34.60125 65.309375,30.48375 C70.8375,17.95125 66.775,11.25 60.934375,11.25 C56.98125,11.25 53.909375,14.31375 53.909375,19.965 C53.909375,34.60125 60.996875,26.6025 60.928125,45 L74.99375,45 L75,43.26375 C75,39.71625 74.76875,37.665 71.275,36.6975 Z M0.00625,45 L14.071875,45 C14.00625,26.6025 21.090625,34.605 21.090625,19.965 C21.090625,14.31375 18.01875,11.25 14.065625,11.25 C8.225,11.25 4.1625,17.95125 9.69375,30.48375 C11.509375,34.605 7.759375,35.58 3.728125,36.6975 C0.23125,37.665 0,39.71625 0,43.26375 L0.00625,45 Z"/>
</svg>
