<svg xmlns="http://www.w3.org/2000/svg" width="60" height="45" viewBox="0 0 60 45">
  <defs>
    <linearGradient id="viewloans-a" x1="0%" y1="100%" y2="0%">
      <stop offset="0%" stop-color="#FFDEA7"/>
      <stop offset="100%" stop-color="#EA6362"/>
    </linearGradient>
  </defs>
  <path fill="url(#viewloans-a)" d="M48.75,0 C42.5375,0 37.5,5.0375 37.5,11.25 C37.5,17.4625 42.5375,22.5 48.75,22.5 C54.9625,22.5 60,17.4625 60,11.25 C60,5.0375 54.9625,0 48.75,0 Z M47.5,17.5 L47.5,12.5 L42.5,12.5 L42.5,10 L47.5,10 L47.5,5 L55,11.25 L47.5,17.5 Z M38.75,37.5 C40.82,37.5 42.5,39.1775 42.5,41.25 C42.5,43.3225 40.82,45 38.75,45 C36.68,45 35,43.3225 35,41.25 C35,39.18 36.68,37.5 38.75,37.5 Z M-8.8817842e-16,0 L1.8575,5 L6.68,5 L15.365,35 L48.4625,35 L51.73,27.215 C50.7625,27.395 49.7675,27.5 48.75,27.5 C39.775,27.5 32.5,20.225 32.5,11.25 C32.5,9.9575 32.6675,8.705 32.9525,7.5 L17.97,7.5 L24.325,30 L19.0675,30 L10.49,0 L-8.8817842e-16,0 Z M22.5,41.25 C22.5,43.3225 24.18,45 26.25,45 C28.32,45 30,43.3225 30,41.25 C30,39.18 28.32,37.5 26.25,37.5 C24.18,37.5 22.5,39.18 22.5,41.25 Z"/>
</svg>
